<?xml version="1.0" standalone="no"?>
<!DOCTYPE svg PUBLIC "-//W3C//DTD SVG 20010904//EN"
 "http://www.w3.org/TR/2001/REC-SVG-20010904/DTD/svg10.dtd">
<svg version="1.0" xmlns="http://www.w3.org/2000/svg"
 width="700.000000pt" height="700.000000pt" viewBox="0 0 700.000000 700.000000"
 preserveAspectRatio="xMidYMid meet">
<metadata>
Created by potrace 1.14, written by Peter Selinger 2001-2017
</metadata>
<g transform="translate(0.000000,700.000000) scale(0.100000,-0.100000)"
fill="#000000" stroke="none">
<path d="M2698 6540 c-20 -11 -46 -36 -58 -56 -22 -35 -22 -38 -11 -187 15
-197 -3 -458 -40 -572 -5 -17 -27 -43 -49 -58 -48 -34 -90 -94 -134 -189 l-33
-70 -36 42 c-20 23 -46 70 -58 104 -21 57 -23 80 -26 356 -2 162 -6 305 -8
318 -6 26 -59 62 -93 62 -37 0 -78 -27 -92 -59 -20 -48 -8 -607 15 -685 38
-135 126 -257 220 -307 l45 -24 0 -601 0 -601 -109 -109 c-188 -189 -322 -394
-412 -631 -10 -26 -11 -25 -66 57 -76 115 -145 254 -187 380 -124 373 -37 704
249 955 93 82 98 96 84 247 -19 220 -76 452 -144 589 -41 81 -112 185 -146
213 -46 39 -108 36 -143 -5 -34 -40 -33 -80 2 -121 126 -147 208 -386 237
-689 l6 -67 -89 -88 c-145 -144 -238 -305 -284 -491 -28 -114 -30 -319 -4
-438 55 -251 182 -510 354 -724 29 -35 52 -68 52 -73 0 -4 -7 -52 -17 -106
-22 -130 -22 -403 0 -532 45 -264 148 -513 293 -716 85 -118 138 -178 254
-282 397 -360 977 -663 1565 -817 317 -83 564 -118 835 -119 171 0 205 3 275
22 392 108 625 427 709 968 66 422 23 1054 -110 1634 -43 185 -66 257 -134
415 -248 580 -583 960 -955 1084 -173 58 -318 62 -522 16 -21 -5 -23 -2 -23
38 l0 44 46 7 c26 3 93 6 148 6 314 0 802 73 968 144 71 30 90 101 42 150 -34
33 -71 34 -178 1 -232 -71 -606 -115 -977 -115 -161 0 -190 -5 -224 -36 l-25
-23 0 -290 0 -289 31 -26 c19 -16 43 -26 63 -26 37 0 83 31 95 63 10 28 134
67 233 74 165 12 309 -44 477 -186 237 -200 515 -699 606 -1086 132 -566 175
-1175 110 -1571 -67 -411 -227 -644 -485 -705 -65 -15 -234 -15 -380 1 -583
62 -1161 273 -1648 599 -507 339 -739 700 -777 1206 -19 252 62 590 197 820
94 161 258 349 340 391 26 13 59 40 74 59 30 40 172 131 284 183 57 27 203 82
215 82 1 0 5 -78 8 -172 13 -345 87 -677 212 -944 29 -63 40 -96 32 -98 -7 -2
-51 -9 -99 -15 -173 -23 -342 -87 -456 -173 -29 -21 -57 -51 -63 -65 -23 -61
22 -123 90 -123 28 0 51 11 96 45 154 116 451 174 745 146 116 -11 378 -57
396 -69 6 -4 18 -52 27 -107 36 -207 122 -407 243 -568 73 -98 215 -235 306
-296 55 -37 68 -42 103 -37 66 8 104 72 75 126 -5 10 -47 47 -92 83 -251 196
-397 444 -445 752 -28 186 -5 435 56 610 28 79 27 101 -8 136 -39 38 -100 41
-136 5 -42 -42 -115 -313 -115 -431 0 -22 -3 -49 -6 -61 l-5 -20 -117 22 c-64
13 -170 29 -235 35 l-119 12 -26 41 c-115 183 -221 542 -253 861 -17 176 -6
489 25 695 14 91 26 188 26 215 0 94 -54 173 -171 250 -80 53 -119 105 -127
171 l-5 47 49 -6 c245 -31 993 -33 1239 -3 228 27 429 70 544 115 89 36 169
80 185 103 25 35 20 81 -10 112 -38 38 -83 34 -186 -14 -190 -89 -476 -138
-903 -156 l-160 -7 -13 114 c-28 262 -117 468 -262 610 l-58 57 -4 180 c-3
164 -5 183 -24 208 -40 54 -70 69 -139 69 -71 0 -103 -17 -143 -76 -23 -33
-23 -38 -20 -254 3 -249 7 -264 81 -332 159 -147 223 -276 243 -492 l7 -74
-124 7 c-68 3 -154 9 -190 13 l-67 6 29 61 c33 69 34 75 17 111 -24 53 -104
71 -150 35 -33 -25 -92 -148 -119 -246 -17 -61 -20 -97 -17 -169 6 -151 64
-243 209 -339 95 -62 97 -67 74 -230 -10 -75 -22 -141 -25 -147 -4 -5 -42 -19
-86 -30 -104 -26 -231 -73 -326 -120 -43 -22 -80 -39 -83 -39 -11 0 -5 979 6
1032 18 84 54 151 96 179 121 78 171 253 180 629 6 240 -4 351 -36 405 -39 68
-147 95 -223 55z"/>
</g>
</svg>
