<?xml version="1.0" standalone="no"?>
<!DOCTYPE svg PUBLIC "-//W3C//DTD SVG 20010904//EN"
 "http://www.w3.org/TR/2001/REC-SVG-20010904/DTD/svg10.dtd">
<svg version="1.0" xmlns="http://www.w3.org/2000/svg"
 width="260.000000pt" height="260.000000pt" viewBox="0 0 260.000000 260.000000"
 preserveAspectRatio="xMidYMid meet">
<metadata>
Created by potrace 1.14, written by Peter Selinger 2001-2017
</metadata>
<g transform="translate(0.000000,260.000000) scale(0.100000,-0.100000)"
fill="#000000" stroke="none">
<path d="M1205 2442 c-3 -3 -5 -61 -5 -129 l0 -123 30 0 c28 0 30 3 30 35 0
32 3 35 28 35 20 0 32 -8 45 -30 21 -36 45 -50 70 -41 16 6 15 9 -7 42 l-25
36 25 23 c49 47 16 148 -50 151 -88 5 -137 5 -141 1z m127 -51 c22 -1 34 -46
18 -66 -7 -9 -29 -15 -51 -15 -39 0 -39 0 -39 38 0 45 5 53 34 47 12 -2 29 -4
38 -4z"/>
<path d="M1484 2427 c-2 -7 6 -48 19 -92 20 -71 22 -86 11 -127 -11 -46 -11
-46 15 -51 34 -7 37 -4 46 39 5 28 24 53 77 105 45 44 66 70 57 73 -8 2 -22 7
-31 10 -10 3 -21 -1 -25 -8 -5 -7 -24 -27 -44 -44 l-36 -32 -20 62 c-14 44
-25 63 -41 69 -15 6 -24 5 -28 -4z"/>
<path d="M1035 2415 c-99 -28 -110 -32 -108 -41 8 -47 56 -221 62 -227 10 -10
183 34 188 48 1 6 -1 16 -6 24 -8 12 -16 13 -52 2 -77 -23 -86 -23 -93 2 -3
12 -6 25 -6 28 0 3 25 11 56 18 48 11 55 15 52 34 -2 12 -9 21 -17 19 -7 -1
-25 -4 -39 -6 -15 -2 -35 -7 -44 -11 -13 -5 -20 -1 -27 16 -5 13 -7 27 -5 30
2 3 31 12 64 19 53 11 61 16 58 34 -4 26 -20 28 -83 11z"/>
<path d="M764 2314 c-78 -38 -107 -110 -73 -182 37 -76 125 -97 200 -48 58 39
67 64 38 115 -23 42 -33 48 -59 31 -13 -8 -13 -13 2 -40 20 -36 16 -53 -18
-69 -37 -16 -60 -14 -88 12 -60 52 -27 134 57 143 9 1 22 2 27 3 6 0 10 12 10
26 0 22 -4 25 -32 25 -18 0 -47 -7 -64 -16z"/>
<path d="M1802 2188 l-72 -103 22 -17 c22 -17 24 -17 43 7 25 30 29 30 64 6
72 -52 150 -28 163 49 6 39 -15 72 -73 115 -34 25 -64 45 -68 45 -4 0 -39 -46
-79 -102z m157 -17 c13 -24 -5 -61 -30 -61 -11 0 -34 8 -49 17 -25 14 -27 20
-18 37 6 12 17 29 25 38 14 16 17 16 40 1 13 -9 28 -23 32 -32z"/>
<path d="M1653 2154 c-8 -22 10 -49 32 -49 10 0 22 7 28 16 15 24 1 49 -28 49
-15 0 -28 -7 -32 -16z"/>
<path d="M533 2140 c-15 -10 -47 -37 -70 -62 l-43 -44 90 -89 90 -90 22 22 22
22 -24 21 c-37 32 -17 55 48 55 39 0 57 5 73 21 l21 21 -46 7 c-44 7 -46 9
-46 40 0 34 -37 85 -62 87 -7 0 -20 2 -30 4 -9 2 -29 -5 -45 -15z m51 -46 c36
-14 38 -41 6 -78 l-31 -35 -30 31 -29 31 27 29 c29 30 32 31 57 22z"/>
<path d="M2018 2030 c-88 -73 -96 -83 -85 -101 14 -23 26 -24 55 -3 21 15 25
15 42 -1 17 -15 17 -21 6 -59 -12 -38 -11 -45 5 -64 9 -12 19 -22 22 -22 3 0
10 19 15 43 11 42 12 43 46 39 29 -3 41 1 66 26 49 49 39 95 -41 185 l-34 38
-97 -81z m125 -26 c47 -64 -13 -115 -67 -57 l-27 28 33 28 c18 15 35 27 38 27
3 0 13 -12 23 -26z"/>
<path d="M346 1936 c-16 -25 -11 -34 24 -49 47 -20 115 -67 121 -84 11 -30
-12 -67 -43 -71 -17 -2 -52 11 -97 37 l-71 40 -16 -25 c-9 -13 -15 -26 -13
-28 41 -31 158 -86 184 -86 65 0 125 81 110 149 -8 36 -33 59 -117 104 l-66
36 -16 -23z"/>
<path d="M1159 1883 c0 -4 -2 -39 -3 -77 -2 -37 -8 -71 -13 -75 -6 -3 -16 -17
-22 -29 -18 -34 -24 -21 -30 61 -6 77 -23 93 -31 30 -8 -54 4 -110 28 -136 18
-19 20 -35 20 -120 l0 -99 -46 -69 c-52 -76 -61 -76 -82 1 -19 69 -10 114 33
163 21 23 24 35 20 73 -5 53 -25 105 -47 123 -23 20 -32 -11 -12 -41 9 -14 19
-46 22 -72 6 -39 3 -50 -14 -69 -30 -32 -50 -87 -45 -127 4 -41 30 -115 51
-148 10 -15 16 -51 17 -97 1 -60 7 -84 33 -138 64 -129 239 -230 436 -252 132
-14 201 94 191 296 -11 220 -71 367 -177 432 -45 28 -49 32 -27 35 51 6 109
25 109 37 0 20 -12 25 -31 14 -11 -5 -61 -13 -112 -17 l-92 -7 -1 -50 c-1 -72
3 -79 34 -59 27 18 83 14 109 -7 28 -24 75 -101 94 -153 26 -75 34 -136 34
-262 0 -121 -16 -170 -62 -195 -38 -20 -169 3 -257 45 -147 71 -213 149 -223
264 -9 103 35 198 117 253 53 36 60 36 60 2 0 -29 24 -146 35 -174 4 -10 1
-16 -8 -16 -26 0 -75 -24 -82 -40 -9 -25 1 -27 46 -9 78 32 179 18 179 -25 0
-43 71 -149 99 -149 24 0 19 22 -13 55 -53 54 -71 130 -52 218 7 30 5 37 -8
37 -9 0 -19 -12 -23 -27 -9 -36 -10 -40 -12 -57 -1 -12 -8 -13 -32 -6 -18 5
-35 7 -39 5 -19 -12 -57 135 -54 206 1 25 4 64 8 87 5 37 2 46 -24 76 l-30 34
127 5 c71 2 138 7 150 10 37 10 63 27 63 42 0 18 -1 18 -37 4 -34 -13 -54 -17
-118 -25 -50 -6 -50 -6 -53 22 -1 16 -13 52 -27 80 -14 28 -25 62 -25 76 0 34
-25 55 -45 38 -25 -21 -19 -92 10 -126 14 -16 25 -33 26 -39 0 -5 2 -20 3 -32
2 -16 -3 -23 -13 -22 -26 1 -46 13 -46 28 0 28 -23 21 -34 -10 -16 -47 -14
-64 14 -97 39 -47 34 -74 -19 -93 l-44 -16 2 102 c1 82 4 105 18 119 24 24 30
50 26 126 -3 59 -5 65 -25 68 -13 2 -23 0 -24 -5z m231 -343 c0 -5 -4 -10 -10
-10 -5 0 -10 5 -10 10 0 6 5 10 10 10 6 0 10 -4 10 -10z m40 0 c0 -5 -7 -7
-15 -4 -8 4 -15 8 -15 10 0 2 7 4 15 4 8 0 15 -4 15 -10z"/>
<path d="M2175 1825 c-67 -36 -89 -105 -57 -178 33 -74 103 -103 175 -74 123
52 89 250 -45 264 -28 2 -54 -2 -73 -12z m98 -54 c13 -5 30 -23 36 -40 34 -80
-59 -146 -123 -88 -39 34 -41 73 -6 108 30 30 53 35 93 20z"/>
<path d="M215 1646 c-48 -73 -38 -154 22 -177 36 -13 65 4 98 60 18 31 36 51
47 51 25 0 24 -46 -3 -89 -35 -58 1 -87 40 -32 44 62 35 165 -15 177 -45 11
-72 -4 -100 -55 -29 -54 -47 -67 -63 -47 -12 14 3 81 19 91 16 10 12 23 -10
35 -16 8 -22 6 -35 -14z"/>
<path d="M2189 1136 c-62 -83 -45 -196 30 -196 29 0 50 19 92 82 28 44 34 46
49 17 9 -16 7 -29 -9 -62 -18 -36 -19 -43 -6 -56 19 -20 39 -2 58 52 24 72 4
131 -48 138 -36 5 -59 -10 -90 -59 -16 -26 -39 -48 -49 -50 -17 -4 -18 1 -13
38 3 23 15 52 27 64 16 18 18 25 8 33 -27 20 -33 20 -49 -1z"/>
<path d="M315 1044 c-22 -7 -41 -14 -42 -14 -1 0 -11 -15 -22 -34 -59 -95 8
-220 116 -218 112 1 167 127 97 219 -41 54 -88 69 -149 47z m104 -75 c45 -42
17 -120 -47 -132 -73 -14 -123 81 -69 130 38 36 79 36 116 2z"/>
<path d="M2119 902 c-42 -21 -73 -73 -71 -121 1 -43 40 -81 131 -129 l58 -32
11 24 c13 28 14 26 -75 80 -34 20 -65 46 -68 56 -9 29 2 56 30 68 20 9 32 7
72 -14 26 -14 61 -35 76 -46 l30 -21 18 24 c22 28 21 30 -78 85 -77 44 -93 47
-134 26z"/>
<path d="M518 800 c-13 -40 -16 -42 -58 -45 -34 -3 -51 -10 -67 -30 -39 -45
-27 -89 56 -194 l18 -24 34 23 c19 13 64 48 101 78 57 46 66 57 58 72 -16 30
-26 31 -55 8 -27 -21 -28 -21 -42 -2 -13 18 -13 34 2 89 3 11 -3 30 -14 44
l-18 24 -15 -43z m-4 -129 l29 -30 -29 -25 c-36 -32 -48 -32 -68 -1 -19 29
-21 56 -4 73 19 19 42 14 72 -17z"/>
<path d="M1971 709 l-21 -23 24 -25 25 -26 -22 -18 c-21 -17 -35 -17 -88 -1
-8 2 -26 -7 -39 -21 -13 -14 -19 -25 -14 -26 18 -1 59 -9 72 -14 6 -2 12 -18
12 -35 0 -40 47 -90 85 -90 36 0 62 15 117 69 l47 46 -89 93 -88 93 -21 -22z
m109 -184 c-23 -28 -64 -44 -83 -34 -27 15 -22 64 9 88 l27 21 30 -30 c26 -25
28 -32 17 -45z"/>
<path d="M614 549 c-44 -22 -60 -88 -31 -132 15 -23 124 -104 130 -96 2 2 36
48 76 102 68 92 71 100 54 113 -25 19 -32 17 -55 -11 l-19 -25 -32 24 c-38 29
-93 40 -123 25z m97 -66 c16 -10 29 -20 29 -23 0 -3 -12 -20 -28 -37 l-27 -33
-27 23 c-31 26 -38 46 -26 70 11 22 42 22 79 0z"/>
<path d="M1734 524 c-21 -7 -54 -29 -71 -48 l-33 -36 22 -45 c24 -48 28 -51
59 -34 19 10 19 12 5 34 -9 14 -16 31 -16 38 0 17 42 47 64 47 45 0 86 -43 86
-90 0 -33 -42 -71 -80 -73 -24 -1 -37 -8 -43 -20 -10 -26 0 -37 34 -37 44 0
104 35 129 75 63 102 -41 228 -156 189z"/>
<path d="M876 495 c-15 -15 -12 -44 7 -56 13 -9 47 1 48 15 5 48 -25 71 -55
41z"/>
<path d="M1015 413 c-5 -29 -23 -53 -82 -109 -76 -71 -76 -71 -48 -78 28 -7
30 -6 95 52 13 12 27 22 31 22 3 0 12 -25 19 -56 13 -53 31 -74 63 -74 13 0
11 15 -9 88 -21 74 -23 93 -14 131 9 35 8 46 -2 52 -29 19 -46 9 -53 -28z"/>
<path d="M1549 445 c-3 -2 -22 -7 -43 -10 -20 -4 -52 -12 -70 -18 -29 -10 -32
-15 -25 -34 8 -21 9 -21 61 -7 75 20 86 18 86 -11 0 -22 -8 -27 -54 -41 -43
-12 -54 -20 -54 -36 0 -19 4 -20 43 -14 23 4 52 9 63 12 17 4 22 0 26 -20 5
-27 4 -28 -94 -50 -19 -4 -28 -13 -28 -26 0 -25 18 -25 113 -3 40 9 75 16 79
15 4 -1 5 4 3 11 -3 10 -34 142 -50 215 -4 15 -13 22 -29 22 -12 0 -25 -2 -27
-5z"/>
<path d="M1186 375 l25 -43 -26 -26 c-40 -40 -28 -112 24 -136 14 -7 59 -14
99 -16 l72 -4 1 48 c0 26 2 84 4 130 l3 83 -32 -3 c-27 -3 -31 -7 -31 -33 0
-25 -4 -30 -27 -33 -23 -3 -32 3 -49 32 -12 20 -28 36 -37 37 -10 0 -25 2 -34
4 -15 3 -14 -3 8 -40z m136 -96 c2 -6 2 -26 0 -44 -4 -30 -7 -33 -31 -30 -14
1 -34 3 -43 4 -22 1 -34 46 -18 66 14 17 87 20 92 4z"/>
</g>
</svg>
