
<!-- <svg xmlns="http://www.w3.org/2000/svg" width="70" height="69" viewBox="0 0 70 69" fill="none">
<path d="M8.93077 20.8577L8.69332 20.4177L8.93077 20.8577C9.42961 20.5885 9.73411 20.0611 9.71781 19.4945L9.51715 12.5195C9.50948 12.2527 9.7128 12.0269 9.979 12.0066L16.9368 11.4771C17.502 11.4341 17.9946 11.0761 18.2102 10.5518L20.8639 4.09827C20.9654 3.85136 21.243 3.72776 21.4944 3.81753L28.066 6.16375C28.5999 6.35435 29.1956 6.22773 29.6057 5.83648L34.6549 1.02019C34.8481 0.83592 35.1519 0.83592 35.3451 1.02019L40.3943 5.83648C40.8044 6.22773 41.4001 6.35435 41.934 6.16375L48.5056 3.81753C48.757 3.72776 49.0346 3.85136 49.1361 4.09827L51.7898 10.5518C52.0053 11.0761 52.498 11.4341 53.0632 11.4771L60.021 12.0066C60.2872 12.0269 60.4905 12.2527 60.4828 12.5195L60.2822 19.4945C60.2659 20.0611 60.5704 20.5885 61.0692 20.8577L67.2101 24.1714C67.445 24.2982 67.5389 24.5872 67.4234 24.8279L64.4031 31.1182C64.1577 31.6292 64.2214 32.2349 64.5676 32.6837L68.8297 38.2086C68.9928 38.42 68.961 38.7222 68.7576 38.8951L63.4399 43.4131C63.0079 43.7802 62.8197 44.3593 62.9535 44.9102L64.5999 51.691C64.6629 51.9505 64.511 52.2136 64.2548 52.2888L57.5592 54.2533C57.0153 54.4129 56.6078 54.8655 56.5059 55.4231L55.252 62.2874C55.2041 62.55 54.9582 62.7286 54.6936 62.6931L47.7778 61.7645C47.216 61.689 46.6597 61.9367 46.3398 62.4047L42.4024 68.1655C42.2517 68.3859 41.9545 68.4491 41.7272 68.309L35.787 64.6478C35.3045 64.3503 34.6955 64.3503 34.213 64.6478L28.2728 68.309C28.0455 68.4491 27.7483 68.3859 27.5976 68.1655L23.6602 62.4047C23.3403 61.9367 22.784 61.689 22.2222 61.7645L15.3064 62.6931C15.0418 62.7286 14.7959 62.55 14.748 62.2874L13.4941 55.4231C13.3922 54.8655 12.9847 54.4129 12.4408 54.2533L5.74518 52.2888C5.48901 52.2136 5.33707 51.9505 5.40007 51.691L7.04652 44.9102C7.18027 44.3593 6.99208 43.7802 6.5601 43.4131L1.24241 38.8951C1.03896 38.7222 1.00719 38.42 1.17026 38.2086L5.43239 32.6837C5.77862 32.2349 5.84228 31.6292 5.59693 31.1182L2.57663 24.8279C2.46108 24.5872 2.55498 24.2982 2.78992 24.1714L8.93077 20.8577Z" fill="#E94D66" stroke="#F9FAFF"/>
</svg> -->
<svg width="70" height="70" viewBox="0 0 70 70" fill="none" xmlns="http://www.w3.org/2000/svg">
<path d="M8.93077 20.8577L8.69332 20.4177L8.93077 20.8577C9.42961 20.5885 9.73411 20.0611 9.71781 19.4945L9.51715 12.5195C9.50948 12.2527 9.7128 12.0269 9.979 12.0066L16.9368 11.4771C17.502 11.4341 17.9946 11.0761 18.2102 10.5518L20.8639 4.09827C20.9654 3.85136 21.243 3.72776 21.4944 3.81753L28.066 6.16375C28.5999 6.35435 29.1956 6.22773 29.6057 5.83648L34.6549 1.02019C34.8481 0.83592 35.1519 0.83592 35.3451 1.02019L40.3943 5.83648C40.8044 6.22773 41.4001 6.35435 41.934 6.16375L48.5056 3.81753C48.757 3.72776 49.0346 3.85136 49.1361 4.09827L51.7898 10.5518C52.0053 11.0761 52.498 11.4341 53.0632 11.4771L60.021 12.0066C60.2872 12.0269 60.4905 12.2527 60.4828 12.5195L60.2822 19.4945C60.2659 20.0611 60.5704 20.5885 61.0692 20.8577L67.2101 24.1714C67.445 24.2982 67.5389 24.5872 67.4234 24.8279L64.4031 31.1182C64.1577 31.6292 64.2214 32.2349 64.5676 32.6837L68.8297 38.2086C68.9928 38.42 68.961 38.7222 68.7576 38.8951L63.4399 43.4131C63.0079 43.7802 62.8197 44.3593 62.9535 44.9102L64.5999 51.691C64.6629 51.9505 64.511 52.2136 64.2548 52.2888L57.5592 54.2533C57.0153 54.4129 56.6078 54.8655 56.5059 55.4231L55.252 62.2874C55.2041 62.55 54.9582 62.7286 54.6936 62.6931L47.7778 61.7645C47.216 61.689 46.6597 61.9367 46.3398 62.4047L42.4024 68.1655C42.2517 68.3859 41.9545 68.4491 41.7272 68.309L35.787 64.6478C35.3045 64.3503 34.6955 64.3503 34.213 64.6478L28.2728 68.309C28.0455 68.4491 27.7483 68.3859 27.5976 68.1655L23.6602 62.4047C23.3403 61.9367 22.784 61.689 22.2222 61.7645L15.3064 62.6931C15.0418 62.7286 14.7959 62.55 14.748 62.2874L13.4941 55.4231C13.3922 54.8655 12.9847 54.4129 12.4408 54.2533L5.74518 52.2888C5.48901 52.2136 5.33707 51.9505 5.40007 51.691L7.04652 44.9102C7.18027 44.3593 6.99208 43.7802 6.5601 43.4131L1.24241 38.8951C1.03896 38.7222 1.00719 38.42 1.17026 38.2086L5.43239 32.6837C5.77862 32.2349 5.84228 31.6292 5.59693 31.1182L2.57663 24.8279C2.46108 24.5872 2.55498 24.2982 2.78992 24.1714L8.93077 20.8577Z" fill="#E94D66" stroke="#F9FAFF"/>
<path d="M16.9299 32V25.988H17.5539L19.8819 30.224L22.2339 25.988H22.8459V32H22.1859V26.792H22.4379L20.0859 31.04H19.6899L17.3379 26.792H17.5899V32H16.9299ZM27.2755 32.096C26.7075 32.096 26.2155 31.972 25.7995 31.724C25.3915 31.476 25.0755 31.12 24.8515 30.656C24.6275 30.192 24.5155 29.636 24.5155 28.988C24.5155 28.348 24.6275 27.796 24.8515 27.332C25.0755 26.868 25.3915 26.512 25.7995 26.264C26.2155 26.008 26.7075 25.88 27.2755 25.88C27.8355 25.88 28.3195 26.008 28.7275 26.264C29.1435 26.512 29.4635 26.868 29.6875 27.332C29.9195 27.796 30.0355 28.348 30.0355 28.988C30.0355 29.636 29.9195 30.192 29.6875 30.656C29.4635 31.12 29.1435 31.476 28.7275 31.724C28.3195 31.972 27.8355 32.096 27.2755 32.096ZM27.2755 31.472C27.8835 31.472 28.3715 31.26 28.7395 30.836C29.1075 30.412 29.2915 29.796 29.2915 28.988C29.2915 28.18 29.1075 27.564 28.7395 27.14C28.3715 26.716 27.8835 26.504 27.2755 26.504C26.6595 26.504 26.1675 26.716 25.7995 27.14C25.4395 27.564 25.2595 28.18 25.2595 28.988C25.2595 29.796 25.4395 30.412 25.7995 30.836C26.1675 31.26 26.6595 31.472 27.2755 31.472ZM30.7472 32L31.9832 29.96C32.1912 29.632 32.3712 29.376 32.5232 29.192C32.6752 29.008 32.8352 28.876 33.0032 28.796C33.1792 28.716 33.3792 28.664 33.6032 28.64L33.3872 28.856L31.0712 25.988H31.8992L33.9992 28.592H35.0792V25.988H35.7992V28.592H36.8672L38.9672 25.988H39.7952L37.4792 28.856L37.2512 28.64C37.4832 28.664 37.6832 28.716 37.8512 28.796C38.0272 28.876 38.1912 29.008 38.3432 29.192C38.5032 29.376 38.6832 29.632 38.8832 29.96L40.1192 32H39.3272L38.1752 30.116C38.0312 29.86 37.8912 29.668 37.7552 29.54C37.6192 29.404 37.4672 29.312 37.2992 29.264C37.1392 29.208 36.9352 29.18 36.6872 29.18H35.7992V32H35.0792V29.18H34.1792C33.9312 29.18 33.7232 29.208 33.5552 29.264C33.3952 29.312 33.2472 29.404 33.1112 29.54C32.9832 29.668 32.8392 29.86 32.6792 30.116L31.5512 32H30.7472ZM41.176 32V25.988H41.908V28.58H45.496V25.988H46.228V32H45.496V29.192H41.908V32H41.176ZM50.6544 32.096C50.0864 32.096 49.5944 31.972 49.1784 31.724C48.7704 31.476 48.4544 31.12 48.2304 30.656C48.0064 30.192 47.8944 29.636 47.8944 28.988C47.8944 28.348 48.0064 27.796 48.2304 27.332C48.4544 26.868 48.7704 26.512 49.1784 26.264C49.5944 26.008 50.0864 25.88 50.6544 25.88C51.2144 25.88 51.6984 26.008 52.1064 26.264C52.5224 26.512 52.8424 26.868 53.0664 27.332C53.2984 27.796 53.4144 28.348 53.4144 28.988C53.4144 29.636 53.2984 30.192 53.0664 30.656C52.8424 31.12 52.5224 31.476 52.1064 31.724C51.6984 31.972 51.2144 32.096 50.6544 32.096ZM50.6544 31.472C51.2624 31.472 51.7504 31.26 52.1184 30.836C52.4864 30.412 52.6704 29.796 52.6704 28.988C52.6704 28.18 52.4864 27.564 52.1184 27.14C51.7504 26.716 51.2624 26.504 50.6544 26.504C50.0384 26.504 49.5464 26.716 49.1784 27.14C48.8184 27.564 48.6384 28.18 48.6384 28.988C48.6384 29.796 48.8184 30.412 49.1784 30.836C49.5464 31.26 50.0384 31.472 50.6544 31.472ZM17.3614 47.096C16.7934 47.096 16.3014 46.972 15.8854 46.724C15.4774 46.476 15.1614 46.12 14.9374 45.656C14.7134 45.192 14.6014 44.636 14.6014 43.988C14.6014 43.348 14.7134 42.796 14.9374 42.332C15.1614 41.868 15.4774 41.512 15.8854 41.264C16.3014 41.008 16.7934 40.88 17.3614 40.88C17.9214 40.88 18.4054 41.008 18.8134 41.264C19.2294 41.512 19.5494 41.868 19.7734 42.332C20.0054 42.796 20.1214 43.348 20.1214 43.988C20.1214 44.636 20.0054 45.192 19.7734 45.656C19.5494 46.12 19.2294 46.476 18.8134 46.724C18.4054 46.972 17.9214 47.096 17.3614 47.096ZM17.3614 46.472C17.9694 46.472 18.4574 46.26 18.8254 45.836C19.1934 45.412 19.3774 44.796 19.3774 43.988C19.3774 43.18 19.1934 42.564 18.8254 42.14C18.4574 41.716 17.9694 41.504 17.3614 41.504C16.7454 41.504 16.2534 41.716 15.8854 42.14C15.5254 42.564 15.3454 43.18 15.3454 43.988C15.3454 44.796 15.5254 45.412 15.8854 45.836C16.2534 46.26 16.7454 46.472 17.3614 46.472ZM21.7932 47V40.988H22.5252V43.58H26.1132V40.988H26.8452V47H26.1132V44.192H22.5252V47H21.7932ZM28.4516 47.12L28.1396 46.544C28.4356 46.4 28.6796 46.228 28.8716 46.028C29.0636 45.828 29.2156 45.572 29.3276 45.26C29.4396 44.948 29.5196 44.56 29.5676 44.096C29.6156 43.624 29.6396 43.052 29.6396 42.38V40.988H33.7676V47H33.0476V41.588H30.3356V42.404C30.3356 43.38 30.2756 44.18 30.1556 44.804C30.0356 45.42 29.8356 45.908 29.5556 46.268C29.2836 46.628 28.9156 46.912 28.4516 47.12ZM38.1013 47.096C37.5573 47.096 37.0853 46.972 36.6853 46.724C36.2853 46.476 35.9773 46.12 35.7613 45.656C35.5453 45.192 35.4373 44.636 35.4373 43.988C35.4373 43.34 35.5453 42.788 35.7613 42.332C35.9853 41.868 36.2973 41.512 36.6973 41.264C37.0973 41.008 37.5653 40.88 38.1013 40.88C38.6533 40.88 39.1293 41.024 39.5293 41.312C39.9373 41.6 40.2053 41.992 40.3333 42.488H40.1893L40.3093 40.988H41.0173C40.9933 41.22 40.9693 41.448 40.9453 41.672C40.9293 41.896 40.9213 42.116 40.9213 42.332V47H40.1893V45.5H40.3213C40.1933 45.996 39.9253 46.388 39.5173 46.676C39.1173 46.956 38.6453 47.096 38.1013 47.096ZM38.1973 46.472C38.8133 46.472 39.3013 46.26 39.6613 45.836C40.0213 45.412 40.2013 44.796 40.2013 43.988C40.2013 43.18 40.0213 42.564 39.6613 42.14C39.3013 41.716 38.8133 41.504 38.1973 41.504C37.5813 41.504 37.0893 41.716 36.7213 42.14C36.3613 42.564 36.1813 43.18 36.1813 43.988C36.1813 44.796 36.3613 45.412 36.7213 45.836C37.0893 46.26 37.5813 46.472 38.1973 46.472ZM42.9689 47V40.988H43.6409V46.364H43.3409L47.3489 40.988H47.9849V47H47.3129V41.612H47.6249L43.6049 47H42.9689ZM45.4889 40.424C45.1929 40.424 44.9089 40.372 44.6369 40.268C44.3649 40.164 44.1249 40.004 43.9169 39.788C43.7089 39.564 43.5449 39.28 43.4249 38.936L43.9169 38.756C44.0609 39.148 44.2609 39.44 44.5169 39.632C44.7809 39.816 45.1049 39.908 45.4889 39.908C45.8729 39.908 46.1889 39.824 46.4369 39.656C46.6929 39.488 46.9249 39.192 47.1329 38.768L47.6009 38.936C47.3689 39.496 47.0689 39.884 46.7009 40.1C46.3409 40.316 45.9369 40.424 45.4889 40.424ZM50.0002 47V40.988H50.7322V43.58H54.3202V40.988H55.0522V47H54.3202V44.192H50.7322V47H50.0002Z" fill="#F9FAFF"/>
</svg>