<!-- <svg width="70" height="69" viewBox="0 0 70 69" fill="none" xmlns="http://www.w3.org/2000/svg">
<path d="M35.3451 1.02019L40.3943 5.83648C40.8044 6.22773 41.4001 6.35435 41.934 6.16375L48.5056 3.81753C48.757 3.72776 49.0346 3.85136 49.1361 4.09827L51.7898 10.5518C52.0053 11.0761 52.498 11.4341 53.0632 11.4771L60.021 12.0066C60.2872 12.0269 60.4905 12.2527 60.4828 12.5195L60.2822 19.4945C60.2659 20.0611 60.5704 20.5885 61.0692 20.8577L67.2101 24.1714C67.445 24.2982 67.5389 24.5872 67.4234 24.8279L64.4031 31.1182C64.1577 31.6292 64.2214 32.2349 64.5676 32.6837L68.8297 38.2086C68.9928 38.42 68.961 38.7222 68.7576 38.8951L63.4399 43.4131C63.0079 43.7802 62.8197 44.3593 62.9535 44.9102L64.5999 51.691C64.6629 51.9505 64.511 52.2136 64.2548 52.2888L57.5592 54.2533C57.0153 54.4129 56.6078 54.8655 56.5059 55.4231L55.252 62.2874C55.2041 62.55 54.9582 62.7286 54.6936 62.6931L47.7778 61.7645C47.216 61.689 46.6597 61.9367 46.3398 62.4047L42.4024 68.1655C42.2517 68.3859 41.9545 68.4491 41.7272 68.309L35.787 64.6478C35.3045 64.3503 34.6955 64.3503 34.213 64.6478L28.2728 68.309C28.0455 68.4491 27.7483 68.3859 27.5976 68.1655L23.6602 62.4047C23.3403 61.9367 22.784 61.689 22.2222 61.7645L15.3064 62.6931C15.0418 62.7286 14.7959 62.55 14.748 62.2874L13.4941 55.4231C13.3922 54.8655 12.9847 54.4129 12.4408 54.2533L5.74518 52.2888C5.48901 52.2136 5.33707 51.9505 5.40007 51.691L7.04652 44.9102C7.18027 44.3593 6.99208 43.7802 6.5601 43.4131L1.24241 38.8951C1.03896 38.7222 1.00719 38.42 1.17026 38.2086L5.43239 32.6837C5.77862 32.2349 5.84228 31.6292 5.59693 31.1182L2.57663 24.8279C2.46108 24.5872 2.55498 24.2982 2.78992 24.1714L8.93077 20.8577C9.42961 20.5885 9.73411 20.0611 9.71781 19.4945L9.51715 12.5195C9.50948 12.2527 9.7128 12.0269 9.979 12.0066L16.9368 11.4771C17.502 11.4341 17.9946 11.0761 18.2102 10.5518L20.8639 4.09827C20.9654 3.85136 21.243 3.72776 21.4944 3.81753L28.066 6.16375C28.5999 6.35435 29.1956 6.22773 29.6057 5.83648L34.6549 1.02019C34.8481 0.83592 35.1519 0.83592 35.3451 1.02019Z" fill="#E94D66" stroke="#F9FAFF"/>
</svg> -->

<svg xmlns="http://www.w3.org/2000/svg" width="70" height="69" viewBox="0 0 70 69" fill="none">
<path d="M8.93077 20.8577L8.69332 20.4177L8.93077 20.8577C9.42961 20.5885 9.73411 20.0611 9.71781 19.4945L9.51715 12.5195C9.50948 12.2527 9.7128 12.0269 9.979 12.0066L16.9368 11.4771C17.502 11.4341 17.9946 11.0761 18.2102 10.5518L20.8639 4.09827C20.9654 3.85136 21.243 3.72776 21.4944 3.81753L28.066 6.16375C28.5999 6.35435 29.1956 6.22773 29.6057 5.83648L34.6549 1.02019C34.8481 0.83592 35.1519 0.83592 35.3451 1.02019L40.3943 5.83648C40.8044 6.22773 41.4001 6.35435 41.934 6.16375L48.5056 3.81753C48.757 3.72776 49.0346 3.85136 49.1361 4.09827L51.7898 10.5518C52.0053 11.0761 52.498 11.4341 53.0632 11.4771L60.021 12.0066C60.2872 12.0269 60.4905 12.2527 60.4828 12.5195L60.2822 19.4945C60.2659 20.0611 60.5704 20.5885 61.0692 20.8577L67.2101 24.1714C67.445 24.2982 67.5389 24.5872 67.4234 24.8279L64.4031 31.1182C64.1577 31.6292 64.2214 32.2349 64.5676 32.6837L68.8297 38.2086C68.9928 38.42 68.961 38.7222 68.7576 38.8951L63.4399 43.4131C63.0079 43.7802 62.8197 44.3593 62.9535 44.9102L64.5999 51.691C64.6629 51.9505 64.511 52.2136 64.2548 52.2888L57.5592 54.2533C57.0153 54.4129 56.6078 54.8655 56.5059 55.4231L55.252 62.2874C55.2041 62.55 54.9582 62.7286 54.6936 62.6931L47.7778 61.7645C47.216 61.689 46.6597 61.9367 46.3398 62.4047L42.4024 68.1655C42.2517 68.3859 41.9545 68.4491 41.7272 68.309L35.787 64.6478C35.3045 64.3503 34.6955 64.3503 34.213 64.6478L28.2728 68.309C28.0455 68.4491 27.7483 68.3859 27.5976 68.1655L23.6602 62.4047C23.3403 61.9367 22.784 61.689 22.2222 61.7645L15.3064 62.6931C15.0418 62.7286 14.7959 62.55 14.748 62.2874L13.4941 55.4231C13.3922 54.8655 12.9847 54.4129 12.4408 54.2533L5.74518 52.2888C5.48901 52.2136 5.33707 51.9505 5.40007 51.691L7.04652 44.9102C7.18027 44.3593 6.99208 43.7802 6.5601 43.4131L1.24241 38.8951C1.03896 38.7222 1.00719 38.42 1.17026 38.2086L5.43239 32.6837C5.77862 32.2349 5.84228 31.6292 5.59693 31.1182L2.57663 24.8279C2.46108 24.5872 2.55498 24.2982 2.78992 24.1714L8.93077 20.8577Z" fill="#E94D66" stroke="#F9FAFF"/>
</svg>