<svg width="60" height="60" viewBox="0 0 60 60" fill="none" xmlns="http://www.w3.org/2000/svg">
<path d="M23.5656 18.3576L24.1937 19.2741C24.4482 19.0996 24.6188 18.8271 24.6645 18.5219C24.7101 18.2167 24.6267 17.9061 24.4342 17.6649L23.5656 18.3576ZM20.8889 15.0008L20.29 14.0649C20.0249 14.2345 19.8442 14.5087 19.7928 14.8191C19.7412 15.1297 19.8239 15.4474 20.0201 15.6936L20.8889 15.0008ZM24.6362 12.6031L25.5049 11.9104C25.1501 11.4655 24.5167 11.3605 24.0373 11.6672L24.6362 12.6031ZM27.3128 15.9599L26.4441 16.6526C26.7646 17.0546 27.3189 17.1841 27.7843 16.966L27.3128 15.9599ZM30.3822 14.5212L30.8538 15.5273C31.244 15.3444 31.4933 14.9522 31.4933 14.5212H30.3822ZM30.3822 11.1112L30.3821 10C29.7686 10.0001 29.2711 10.4975 29.2711 11.1112H30.3822ZM35.1645 11.1111H36.2756C36.2756 10.8164 36.1585 10.5338 35.9501 10.3254C35.7417 10.1171 35.4591 10 35.1645 10V11.1111ZM35.1645 14.5212H34.0533C34.0533 14.9273 34.2749 15.301 34.6311 15.496L35.1645 14.5212ZM17.5556 25.5882L16.5975 26.1508C16.7521 26.4143 17.0086 26.6024 17.3063 26.671C17.6041 26.7396 17.9169 26.6824 18.1713 26.5131L17.5556 25.5882ZM13.1111 22.6251L12.0194 22.4183C11.9636 22.7133 12.0294 23.0183 12.202 23.2639C12.3746 23.5096 12.6392 23.6749 12.9356 23.7223L13.1111 22.6251ZM14.1061 17.3723L14.4198 16.3064C14.1188 16.2179 13.7944 16.2607 13.5266 16.4243C13.2589 16.588 13.0729 16.8572 13.0145 17.1656L14.1061 17.3723ZM22 23.3692L22.4121 24.401C22.8836 24.2128 23.1673 23.729 23.1018 23.2257L22 23.3692ZM28.8397 24.894L27.8435 24.4019L27.2572 25.5887L28.5277 25.9603L28.8397 24.894ZM46.0779 16.4397L47.1882 16.4806L47.2292 15.3677L46.1162 15.3292L46.0779 16.4397ZM45.8836 21.7193L45.8452 22.8298L46.9531 22.868L46.9939 21.7602L45.8836 21.7193ZM17.9601 24.2326C15.7326 26.203 14.8979 28.8947 14.9922 31.6963C15.0857 34.4759 16.088 37.416 17.5917 40.0762C19.0985 42.7419 21.1472 45.1956 23.4169 46.9944C25.6709 48.7809 28.2453 50 30.7888 50V47.7778C28.9349 47.7778 26.8373 46.8698 24.7972 45.2529C22.7727 43.6482 20.9051 41.4221 19.5262 38.9827C18.1442 36.5377 17.2915 33.9471 17.2131 31.6216C17.1357 29.318 17.8126 27.33 19.4326 25.897L17.9601 24.2326ZM30.7888 50C33.3258 50 35.9662 48.7872 38.3043 46.9918C40.6602 45.1828 42.8176 42.7014 44.3989 39.9703C47.5062 34.6039 48.6405 27.7031 43.6175 23.2601L42.1451 24.9246C45.9339 28.2759 45.4191 33.7736 42.4758 38.8568C41.0319 41.3506 39.0637 43.6069 36.9509 45.2293C34.8203 46.8653 32.6491 47.7778 30.7888 47.7778V50ZM43.6175 23.2601C42.9797 22.696 42.4827 22.4028 41.9397 22.1283C41.4159 21.8636 40.9309 21.6522 40.1477 21.1904L39.0189 23.1046C39.8848 23.6152 40.4991 23.8901 40.9371 24.1116C41.356 24.3232 41.6835 24.5162 42.1451 24.9246L43.6175 23.2601ZM29.568 23.9439C27.9127 23.402 25.7658 22.8728 23.6981 22.7543C21.6825 22.6388 19.4698 22.8971 17.9601 24.2326L19.4326 25.897C20.2605 25.1647 21.7089 24.8661 23.5709 24.9729C25.3808 25.0767 27.3282 25.5489 28.8765 26.0558L29.568 23.9439ZM24.4342 17.6649L21.7577 14.3081L20.0201 15.6936L22.6968 19.0503L24.4342 17.6649ZM21.4878 15.9367L25.235 13.539L24.0373 11.6672L20.29 14.0649L21.4878 15.9367ZM23.7675 13.2958L26.4441 16.6526L28.1816 15.2671L25.5049 11.9104L23.7675 13.2958ZM27.7843 16.966L30.8538 15.5273L29.9107 13.5152L26.8412 14.9538L27.7843 16.966ZM31.4933 14.5212V11.1112H29.2711V14.5212H31.4933ZM30.3822 12.2223L35.1645 12.2222V10L30.3821 10L30.3822 12.2223ZM34.0533 11.1111V14.5212H36.2756V11.1111H34.0533ZM35.1645 14.5212C34.6311 15.496 34.6313 15.4962 34.6311 15.496C34.631 15.496 34.6312 15.4961 34.6311 15.496C34.6309 15.4959 34.6297 15.4952 34.6295 15.4951C34.629 15.4948 34.6286 15.4946 34.6283 15.4944C34.6277 15.494 34.6273 15.4939 34.6273 15.4939C34.6272 15.4938 34.6289 15.4947 34.6311 15.496C34.6358 15.4987 34.6447 15.5038 34.6581 15.5118C34.6852 15.5278 34.7292 15.5543 34.7872 15.5916C34.9035 15.6662 35.0745 15.7824 35.2768 15.9397C35.6846 16.2564 36.204 16.7272 36.6642 17.3457L38.4469 16.0189C37.8365 15.1987 37.1603 14.5889 36.6401 14.1848C36.3787 13.9816 36.1526 13.8273 35.9877 13.7215C35.9052 13.6685 35.8377 13.6275 35.7883 13.5984C35.7637 13.5838 35.7436 13.5722 35.7283 13.5636C35.7207 13.5592 35.7143 13.5556 35.7092 13.5528C35.7067 13.5514 35.7045 13.5501 35.7025 13.5491C35.7016 13.5485 35.7007 13.548 35.6999 13.5476C35.6995 13.5474 35.6991 13.5472 35.6988 13.547C35.6986 13.5469 35.6989 13.547 35.6988 13.547C35.6986 13.5469 35.6977 13.5464 35.1645 14.5212ZM22.5142 21.8431C22.7614 20.9621 23.1976 20.3067 23.5725 19.8713C23.7596 19.6542 23.9285 19.4953 24.0449 19.3948C24.103 19.3446 24.1475 19.3094 24.1739 19.2892C24.1871 19.2791 24.1958 19.2728 24.1992 19.2702C24.201 19.269 24.2015 19.2687 24.2006 19.2693C24.2001 19.2697 24.1993 19.2702 24.1981 19.271C24.1976 19.2713 24.1969 19.2719 24.1962 19.2723C24.1958 19.2726 24.1955 19.2729 24.195 19.2732C24.1948 19.2733 24.1951 19.2732 24.195 19.2732C24.1947 19.2736 24.1937 19.2741 23.5656 18.3576C22.9373 17.441 22.937 17.4413 22.9367 17.4416C22.9366 17.4417 22.937 17.4414 22.9367 17.4416C22.9362 17.442 22.9349 17.4428 22.9343 17.4431C22.9332 17.4439 22.932 17.4448 22.9307 17.4457C22.9281 17.4474 22.9251 17.4496 22.9218 17.4519C22.9151 17.4567 22.9069 17.4624 22.8973 17.4693C22.8783 17.4831 22.8538 17.5012 22.8242 17.5238C22.7652 17.5689 22.6862 17.6319 22.5926 17.7128C22.4053 17.8744 22.1568 18.1099 21.8888 18.4211C21.3536 19.0424 20.7291 19.9798 20.3747 21.2428L22.5142 21.8431ZM17.5556 25.5882C18.5137 25.0257 18.5135 25.0253 18.5132 25.0249C18.5132 25.0248 18.5133 25.0251 18.5132 25.0249C18.5129 25.0242 18.512 25.0229 18.5117 25.0222C18.5109 25.0209 18.51 25.0194 18.509 25.0178C18.5071 25.0146 18.5048 25.0107 18.5021 25.0062C18.4968 24.9973 18.4899 24.9861 18.4815 24.9726C18.4647 24.9457 18.4418 24.9097 18.4128 24.866C18.3548 24.7787 18.2721 24.6598 18.1643 24.5186C17.9495 24.2368 17.6311 23.8612 17.2063 23.4692C16.3593 22.6876 15.0558 21.811 13.2866 21.528L12.9356 23.7223C14.1515 23.9168 15.0701 24.5218 15.6991 25.1023C16.0125 25.3913 16.2455 25.667 16.3975 25.8663C16.4732 25.9656 16.5278 26.0446 16.5613 26.095C16.578 26.1202 16.5894 26.1382 16.5954 26.1479C16.5985 26.1527 16.6001 26.1554 16.6005 26.156C16.6007 26.1562 16.601 26.1569 16.6005 26.156C16.6002 26.1556 16.5993 26.1541 16.5989 26.1534C16.5987 26.1531 16.5985 26.1527 16.5982 26.1522C16.5981 26.152 16.5983 26.1523 16.5982 26.1522C16.598 26.1519 16.5975 26.1508 17.5556 25.5882ZM14.2028 22.8319L15.1979 17.5791L13.0145 17.1656L12.0194 22.4183L14.2028 22.8319ZM14.1061 17.3723C13.7925 18.4382 13.7923 18.4382 13.7921 18.4381C13.7921 18.4381 13.7921 18.4381 13.7921 18.4381C13.7923 18.4382 13.7928 18.4383 13.794 18.4388C13.7962 18.4394 13.8002 18.4406 13.8059 18.4423C13.8172 18.4458 13.8352 18.4512 13.8596 18.4588C13.9082 18.4739 13.9819 18.4972 14.0771 18.5287C14.2678 18.5914 14.544 18.6863 14.8785 18.8121C15.55 19.0647 16.4426 19.4369 17.3427 19.9181C18.2496 20.4029 19.122 20.9761 19.7827 21.6177C20.4481 22.2639 20.8183 22.8998 20.8982 23.5127L23.1018 23.2257C22.9329 21.9284 22.192 20.8597 21.3308 20.0234C20.4647 19.1823 19.3947 18.4952 18.3903 17.9583C17.3791 17.4178 16.3916 17.0071 15.6608 16.7322C15.294 16.5942 14.9886 16.4892 14.7728 16.4181C14.6648 16.3824 14.579 16.3553 14.5191 16.3367C14.4891 16.3273 14.4656 16.3202 14.4489 16.3151C14.4406 16.3127 14.4339 16.3107 14.429 16.3092C14.4266 16.3084 14.4247 16.3079 14.4231 16.3074C14.4223 16.3072 14.4217 16.307 14.4211 16.3068C14.4209 16.3068 14.4213 16.3068 14.4211 16.3068C14.4209 16.3067 14.4198 16.3064 14.1061 17.3723ZM21.5879 22.3373C20.1521 22.9108 19.0011 23.4852 18.2047 23.919C17.8062 24.1361 17.4958 24.3182 17.2822 24.4481C17.1755 24.513 17.0928 24.5649 17.0353 24.6014C17.0067 24.6198 16.9842 24.6342 16.9683 24.6447C16.9603 24.6499 16.9539 24.654 16.9492 24.6571C16.9468 24.6588 16.9449 24.66 16.9433 24.6611C16.9425 24.6616 16.9418 24.662 16.9412 24.6624C16.941 24.6626 16.9415 24.6623 16.9412 24.6624C16.9411 24.6626 16.9402 24.6631 16.9401 24.6631C16.94 24.6632 16.9398 24.6633 17.5556 25.5882C18.1713 26.5131 18.1715 26.513 18.1713 26.5131C18.1712 26.5132 18.1715 26.5131 18.1713 26.5131C18.173 26.512 18.1767 26.5096 18.1816 26.5064C18.1915 26.5 18.2076 26.4896 18.2298 26.4753C18.2745 26.447 18.3437 26.4034 18.4365 26.347C18.6222 26.2341 18.9021 26.0696 19.2676 25.8706C19.9989 25.4722 21.0701 24.9371 22.4121 24.401L21.5879 22.3373ZM35.3879 26.5182C36.4033 24.9041 37.4777 24.0469 38.6716 23.4942L37.7381 21.4776C36.1371 22.2187 34.7407 23.3738 33.5069 25.3349L35.3879 26.5182ZM28.5277 25.9603C29.9062 26.3637 31.5139 27.0124 32.5235 27.4421L33.3937 25.3974C32.3671 24.9604 30.6609 24.2691 29.1517 23.8276L28.5277 25.9603ZM35.1472 16.9748C31.8958 18.4798 29.6891 20.6652 27.8435 24.4019L29.8359 25.386C31.4825 22.0527 33.3396 20.2602 36.0808 18.9914L35.1472 16.9748ZM46.1162 15.3292C41.9466 15.1853 38.2811 15.5242 35.1472 16.9748L36.0808 18.9914C38.7439 17.7588 41.994 17.4106 46.0396 17.5501L46.1162 15.3292ZM46.9939 21.7602L47.1882 16.4806L44.9676 16.3988L44.7732 21.6784L46.9939 21.7602ZM38.6716 23.4942C40.1132 22.827 42.02 22.6978 45.8452 22.8298L45.9219 20.6089C42.1667 20.4793 39.7313 20.555 37.7381 21.4776L38.6716 23.4942ZM33.5069 25.3349C33.488 25.365 33.4598 25.3856 33.4325 25.3948C33.4075 25.4032 33.3966 25.3987 33.3937 25.3974L32.5235 27.4421C33.6065 27.9031 34.8053 27.444 35.3879 26.5182L33.5069 25.3349Z" fill="#AEB8FE"/>
<path d="M34.2222 26.1113L31.635 31.7087M31.635 31.7087L31.3997 32.5537C30.9901 34.0236 31.0974 35.5896 31.7034 36.99L32.1617 38.0493M31.635 31.7087L26.799 33.8958M32.4728 42.6084L32.1617 38.0493M32.1617 38.0493L36.8906 37.5004M26.799 33.8958L21.9805 32.7604M26.799 33.8958L25.1558 38.0493" stroke="#AEB8FE" stroke-width="2"/>
</svg>
