<svg width="60" height="60" viewBox="0 0 60 60" fill="none" xmlns="http://www.w3.org/2000/svg">
<path fill-rule="evenodd" clip-rule="evenodd" d="M29.9423 42C30.7486 42 31.4991 42.2385 32.1272 42.6489L33.9438 10L34.9423 10.0556L35.9407 10L37.7573 42.6489C38.3855 42.2385 39.136 42 39.9423 42C42.1514 42 43.9423 43.7909 43.9423 46C43.9423 48.2091 42.1514 50 39.9423 50C37.7432 50 35.9586 48.2254 35.9424 46.0302L35.7188 42.0122H34.1657L33.9422 46.0302C33.9259 48.2254 32.1413 50 29.9423 50C27.7331 50 25.9423 48.2091 25.9423 46C25.9423 43.7909 27.7331 42 29.9423 42ZM34.9423 28.0558L35.6075 40.0122H34.277L34.9423 28.0558ZM34.9423 25.0348C35.4946 25.0348 35.9423 24.5877 35.9423 24.0362C35.9423 23.4847 35.4946 23.0376 34.9423 23.0376C34.39 23.0376 33.9423 23.4847 33.9423 24.0362C33.9423 24.5877 34.39 25.0348 34.9423 25.0348ZM29.9423 44C28.8377 44 27.9423 44.8954 27.9423 46C27.9423 47.1046 28.8377 48 29.9423 48C31.0469 48 31.9423 47.1046 31.9423 46C31.9423 44.8954 31.0469 44 29.9423 44ZM37.9423 46C37.9423 44.8954 38.8377 44 39.9423 44C41.0469 44 41.9423 44.8954 41.9423 46C41.9423 47.1046 41.0469 48 39.9423 48C38.8377 48 37.9423 47.1046 37.9423 46Z" fill="#AEB8FE"/>
<path fill-rule="evenodd" clip-rule="evenodd" d="M21.9423 10.2334L20.4278 11.1421L20.9423 11.9996C20.4278 11.1421 20.4264 11.1429 20.4264 11.1429L20.4249 11.1438L20.4217 11.1458L20.4143 11.1503L20.3959 11.1619C20.382 11.1707 20.3649 11.1818 20.3448 11.1953C20.3047 11.2224 20.2526 11.2591 20.1901 11.3064C20.0652 11.4009 19.8991 11.5378 19.7048 11.7247C19.3156 12.099 18.8163 12.671 18.3093 13.5C17.293 15.1624 16.2675 17.8229 16.006 21.9329C15.9263 23.1855 16.6509 24.2411 17.6848 24.7216C17.2264 25.1748 16.9423 25.804 16.9423 26.4996V47.4996C16.9423 48.8803 18.0616 49.9996 19.4423 49.9996C20.823 49.9996 21.9423 48.8803 21.9423 47.4996V26.4996C21.9423 25.606 21.4735 24.822 20.7684 24.3799C21.4822 23.8315 21.9423 22.9693 21.9423 21.9996V10.2334ZM18.002 22.0599C18.2383 18.3459 19.1341 16.0343 19.9423 14.6655V21.9996C19.9423 22.5519 19.4946 22.9996 18.9423 22.9996C18.3737 22.9996 17.9711 22.5457 18.002 22.0599ZM19.9423 26.5854V26.4996C19.9423 26.2235 19.7184 25.9996 19.4423 25.9996C19.1661 25.9996 18.9423 26.2235 18.9423 26.4996V27.5854L19.9423 26.5854ZM19.9423 29.4138V30.5854L18.9423 31.5854V30.4138L19.9423 29.4138ZM19.9423 34.5854V33.4138L18.9423 34.4138V35.5854L19.9423 34.5854ZM19.9423 37.4138V47.4996C19.9423 47.7757 19.7184 47.9996 19.4423 47.9996C19.1661 47.9996 18.9423 47.7757 18.9423 47.4996V38.4138L19.9423 37.4138Z" fill="#AEB8FE"/>
</svg>
