<svg width="60" height="60" viewBox="0 0 60 60" fill="none" xmlns="http://www.w3.org/2000/svg">
<path fill-rule="evenodd" clip-rule="evenodd" d="M32 39H35.5C42.4036 39 48 33.4036 48 26.5C48 19.5964 42.4036 14 35.5 14H24.5C17.5964 14 12 19.5964 12 26.5C12 34.4145 17.2167 39.2537 22.9239 42.2262C25.7585 43.7025 28.6136 44.6566 30.7728 45.2414C31.2149 45.3611 31.626 45.4649 32 45.5542V39ZM34 48C34 48 33.2439 47.8897 32 47.6077C26.2362 46.3007 10 41.305 10 26.5C10 18.4919 16.4919 12 24.5 12H35.5C43.5081 12 50 18.4919 50 26.5C50 34.5081 43.5081 41 35.5 41H34V48Z" fill="#AEB8FE"/>
<path fill-rule="evenodd" clip-rule="evenodd" d="M30 28C30.5523 28 31 27.5523 31 27C31 26.4477 30.5523 26 30 26C29.4477 26 29 26.4477 29 27C29 27.5523 29.4477 28 30 28ZM30 30C31.6569 30 33 28.6569 33 27C33 25.3431 31.6569 24 30 24C28.3431 24 27 25.3431 27 27C27 28.6569 28.3431 30 30 30Z" fill="#AEB8FE"/>
<path fill-rule="evenodd" clip-rule="evenodd" d="M38 28C38.5523 28 39 27.5523 39 27C39 26.4477 38.5523 26 38 26C37.4477 26 37 26.4477 37 27C37 27.5523 37.4477 28 38 28ZM38 30C39.6569 30 41 28.6569 41 27C41 25.3431 39.6569 24 38 24C36.3431 24 35 25.3431 35 27C35 28.6569 36.3431 30 38 30Z" fill="#AEB8FE"/>
<path fill-rule="evenodd" clip-rule="evenodd" d="M22 28C22.5523 28 23 27.5523 23 27C23 26.4477 22.5523 26 22 26C21.4477 26 21 26.4477 21 27C21 27.5523 21.4477 28 22 28ZM22 30C23.6569 30 25 28.6569 25 27C25 25.3431 23.6569 24 22 24C20.3431 24 19 25.3431 19 27C19 28.6569 20.3431 30 22 30Z" fill="#AEB8FE"/>
</svg>
