<svg width="60" height="60" viewBox="0 0 60 60" fill="none" xmlns="http://www.w3.org/2000/svg">
<path d="M21.5099 35.7506C21.5083 35.749 21.5075 35.7481 21.5075 35.7481M50.0002 44.7881V50H10V44.7881C10 43.1466 11.2522 41.2976 13.6033 39.5822C15.8026 37.9776 18.7255 36.6743 21.6432 35.9583C21.6566 35.9824 21.6708 36.0088 21.6858 36.0374C21.7182 36.099 21.7501 36.1625 21.7862 36.2344L21.7905 36.2431C21.8237 36.3091 21.8618 36.3854 21.9002 36.4583L22.231 37.0867H22.9412H27.7223C28.8063 37.0864 29.3354 37.0865 29.8707 37.0867C30.3937 37.0868 30.923 37.0869 31.9826 37.0867H36.764H37.4741L37.8049 36.4583C37.8998 36.2782 38.0501 36.0602 38.1942 35.9215C38.1949 35.9208 38.1957 35.9202 38.1962 35.9195C41.1672 36.6265 44.1572 37.9482 46.3969 39.5822C48.7481 41.2976 50.0002 43.1466 50.0002 44.7881Z" stroke="#AEB8FE" stroke-width="2"/>
<path fill-rule="evenodd" clip-rule="evenodd" d="M20.5883 45.3121C21.2217 45.3121 21.7647 44.7938 21.7647 44.1183C21.7647 43.4428 21.2217 42.9245 20.5883 42.9245C19.9549 42.9245 19.4118 43.4428 19.4118 44.1183C19.4118 44.7938 19.9549 45.3121 20.5883 45.3121ZM20.5883 47.6477C22.5376 47.6477 24.1177 46.0676 24.1177 44.1183C24.1177 42.169 22.5376 40.5889 20.5883 40.5889C18.639 40.5889 17.0588 42.169 17.0588 44.1183C17.0588 46.0676 18.639 47.6477 20.5883 47.6477Z" fill="#AEB8FE"/>
<path d="M39.4118 46.4706H37.0589V44.1176L38.2353 41.7646H42.9412L44.1177 44.1176V46.4706H41.7648" stroke="#AEB8FE" stroke-width="2" stroke-linejoin="round"/>
<path d="M40.5883 41.7648C41.1766 40.9805 41.7648 37.6472 41.1766 36.4707" stroke="#AEB8FE" stroke-width="2"/>
<path d="M20.2438 41.7648C19.6556 40.9805 19.0673 37.6472 19.6556 36.4707" stroke="#AEB8FE" stroke-width="2"/>
<path d="M40.5884 20.5883C40.5884 26.4385 35.8503 31.1766 30.0001 31.1766C24.1498 31.1766 19.4118 26.4385 19.4118 20.5883C19.4118 14.738 24.1498 10 30.0001 10C35.8503 10 40.5884 14.738 40.5884 20.5883Z" stroke="#AEB8FE" stroke-width="2"/>
</svg>
