<svg width="60" height="60" viewBox="0 0 60 60" fill="none" xmlns="http://www.w3.org/2000/svg">
<path fill-rule="evenodd" clip-rule="evenodd" d="M30 14.6474L25.69 23.3805C25.201 24.3712 24.2558 25.058 23.1623 25.2168L13.5249 26.6173L20.4987 33.415C21.2898 34.1862 21.6509 35.2974 21.464 36.3864L19.8178 45.985L28.4378 41.4532C29.4158 40.939 30.5841 40.939 31.5621 41.4532L40.1822 45.985L38.5359 36.3864C38.3491 35.2974 38.7101 34.1862 39.5014 33.415L46.4751 26.6173L36.8376 25.2168C35.7443 25.058 34.799 24.3712 34.31 23.3805L30 14.6474ZM31.0034 11.6238C30.593 10.7921 29.407 10.7921 28.9965 11.6238L23.6831 22.3901C23.5201 22.7203 23.2051 22.9492 22.8406 23.0021L10.9593 24.7286C10.0415 24.8619 9.675 25.9898 10.3391 26.6373L18.9365 35.0176C19.2002 35.2747 19.3206 35.6451 19.2583 36.008L17.2288 47.8414C17.072 48.7555 18.0314 49.4525 18.8523 49.0209L29.4793 43.434C29.8053 43.2627 30.1947 43.2627 30.5207 43.434L41.1476 49.0209C41.9685 49.4525 42.9281 48.7555 42.7713 47.8414L40.7417 36.008C40.6794 35.6451 40.7997 35.2747 41.0635 35.0176L49.6608 26.6373C50.325 25.9898 49.9586 24.8619 49.0406 24.7286L37.1594 23.0021C36.795 22.9492 36.4799 22.7203 36.317 22.3901L31.0034 11.6238Z" fill="#AEB8FE"/>
</svg>
