
<svg width="70" height="70" viewBox="0 0 70 70" fill="none" xmlns="http://www.w3.org/2000/svg">
<path d="M8.93077 20.8577L8.69332 20.4177L8.93077 20.8577C9.42961 20.5885 9.73411 20.0611 9.71781 19.4945L9.51715 12.5195C9.50948 12.2527 9.7128 12.0269 9.979 12.0066L16.9368 11.4771C17.502 11.4341 17.9946 11.0761 18.2102 10.5518L20.8639 4.09827C20.9654 3.85136 21.243 3.72776 21.4944 3.81753L28.066 6.16375C28.5999 6.35435 29.1956 6.22773 29.6057 5.83648L34.6549 1.02019C34.8481 0.83592 35.1519 0.83592 35.3451 1.02019L40.3943 5.83648C40.8044 6.22773 41.4001 6.35435 41.934 6.16375L48.5056 3.81753C48.757 3.72776 49.0346 3.85136 49.1361 4.09827L51.7898 10.5518C52.0053 11.0761 52.498 11.4341 53.0632 11.4771L60.021 12.0066C60.2872 12.0269 60.4905 12.2527 60.4828 12.5195L60.2822 19.4945C60.2659 20.0611 60.5704 20.5885 61.0692 20.8577L67.2101 24.1714C67.445 24.2982 67.5389 24.5872 67.4234 24.8279L64.4031 31.1182C64.1577 31.6292 64.2214 32.2349 64.5676 32.6837L68.8297 38.2086C68.9928 38.42 68.961 38.7222 68.7576 38.8951L63.4399 43.4131C63.0079 43.7802 62.8197 44.3593 62.9535 44.9102L64.5999 51.691C64.6629 51.9505 64.511 52.2136 64.2548 52.2888L57.5592 54.2533C57.0153 54.4129 56.6078 54.8655 56.5059 55.4231L55.252 62.2874C55.2041 62.55 54.9582 62.7286 54.6936 62.6931L47.7778 61.7645C47.216 61.689 46.6597 61.9367 46.3398 62.4047L42.4024 68.1655C42.2517 68.3859 41.9545 68.4491 41.7272 68.309L35.787 64.6478C35.3045 64.3503 34.6955 64.3503 34.213 64.6478L28.2728 68.309C28.0455 68.4491 27.7483 68.3859 27.5976 68.1655L23.6602 62.4047C23.3403 61.9367 22.784 61.689 22.2222 61.7645L15.3064 62.6931C15.0418 62.7286 14.7959 62.55 14.748 62.2874L13.4941 55.4231C13.3922 54.8655 12.9847 54.4129 12.4408 54.2533L5.74518 52.2888C5.48901 52.2136 5.33707 51.9505 5.40007 51.691L7.04652 44.9102C7.18027 44.3593 6.99208 43.7802 6.5601 43.4131L1.24241 38.8951C1.03896 38.7222 1.00719 38.42 1.17026 38.2086L5.43239 32.6837C5.77862 32.2349 5.84228 31.6292 5.59693 31.1182L2.57663 24.8279C2.46108 24.5872 2.55498 24.2982 2.78992 24.1714L8.93077 20.8577Z" fill="#E94D66" stroke="#F9FAFF"/>
<path d="M15.4299 32V25.988H16.1379V31.4H18.8739V25.988H19.5819V31.4H22.3179V25.988H23.0379V32H15.4299ZM25.0627 32V25.988H25.7947V28.592H27.0427L29.1307 25.988H29.9467L27.6667 28.856L27.4147 28.64C27.6467 28.664 27.8467 28.716 28.0147 28.796C28.1827 28.876 28.3467 29.008 28.5067 29.192C28.6667 29.376 28.8467 29.632 29.0467 29.96L30.2827 32H29.4787L28.3387 30.116C28.1867 29.86 28.0427 29.668 27.9067 29.54C27.7787 29.404 27.6307 29.312 27.4627 29.264C27.2947 29.208 27.0867 29.18 26.8387 29.18H25.7947V32H25.0627ZM33.7559 32.096C33.1879 32.096 32.6959 31.972 32.2799 31.724C31.8719 31.476 31.5559 31.12 31.3319 30.656C31.1079 30.192 30.9959 29.636 30.9959 28.988C30.9959 28.348 31.1079 27.796 31.3319 27.332C31.5559 26.868 31.8719 26.512 32.2799 26.264C32.6959 26.008 33.1879 25.88 33.7559 25.88C34.3159 25.88 34.7999 26.008 35.2079 26.264C35.6239 26.512 35.9439 26.868 36.1679 27.332C36.3999 27.796 36.5159 28.348 36.5159 28.988C36.5159 29.636 36.3999 30.192 36.1679 30.656C35.9439 31.12 35.6239 31.476 35.2079 31.724C34.7999 31.972 34.3159 32.096 33.7559 32.096ZM33.7559 31.472C34.3639 31.472 34.8519 31.26 35.2199 30.836C35.5879 30.412 35.7719 29.796 35.7719 28.988C35.7719 28.18 35.5879 27.564 35.2199 27.14C34.8519 26.716 34.3639 26.504 33.7559 26.504C33.1399 26.504 32.6479 26.716 32.2799 27.14C31.9199 27.564 31.7399 28.18 31.7399 28.988C31.7399 29.796 31.9199 30.412 32.2799 30.836C32.6479 31.26 33.1399 31.472 33.7559 31.472ZM37.6625 32.12L37.3505 31.544C37.6465 31.4 37.8905 31.228 38.0825 31.028C38.2745 30.828 38.4265 30.572 38.5385 30.26C38.6505 29.948 38.7305 29.56 38.7785 29.096C38.8265 28.624 38.8505 28.052 38.8505 27.38V25.988H42.9785V32H42.2585V26.588H39.5465V27.404C39.5465 28.38 39.4865 29.18 39.3665 29.804C39.2465 30.42 39.0465 30.908 38.7665 31.268C38.4945 31.628 38.1265 31.912 37.6625 32.12ZM44.9963 32V25.988H45.7283V28.22H47.6483C48.4083 28.22 48.9803 28.384 49.3643 28.712C49.7563 29.032 49.9523 29.492 49.9523 30.092C49.9523 30.492 49.8643 30.836 49.6883 31.124C49.5203 31.412 49.2643 31.632 48.9203 31.784C48.5763 31.928 48.1523 32 47.6483 32H44.9963ZM45.7283 31.436H47.6243C48.1443 31.436 48.5403 31.328 48.8123 31.112C49.0923 30.896 49.2323 30.56 49.2323 30.104C49.2323 29.648 49.0923 29.312 48.8123 29.096C48.5403 28.88 48.1443 28.772 47.6243 28.772H45.7283V31.436ZM51.3802 29.024V28.4H54.6922V29.024H51.3802ZM18.26 47V40.988H18.992V43.58H22.58V40.988H23.312V47H22.58V44.192H18.992V47H18.26ZM25.3264 47V40.988H25.9984V46.364H25.6984L29.7064 40.988H30.3424V47H29.6704V41.612H29.9824L25.9624 47H25.3264ZM32.3576 47V40.988H33.0896V43.592H34.3376L36.4256 40.988H37.2416L34.9616 43.856L34.7096 43.64C34.9416 43.664 35.1416 43.716 35.3096 43.796C35.4776 43.876 35.6416 44.008 35.8016 44.192C35.9616 44.376 36.1416 44.632 36.3416 44.96L37.5776 47H36.7736L35.6336 45.116C35.4816 44.86 35.3376 44.668 35.2016 44.54C35.0736 44.404 34.9256 44.312 34.7576 44.264C34.5896 44.208 34.3816 44.18 34.1336 44.18H33.0896V47H32.3576ZM40.9549 47.096C40.4109 47.096 39.9389 46.972 39.5389 46.724C39.1389 46.476 38.8309 46.12 38.6149 45.656C38.3989 45.192 38.2909 44.636 38.2909 43.988C38.2909 43.34 38.3989 42.788 38.6149 42.332C38.8389 41.868 39.1509 41.512 39.5509 41.264C39.9509 41.008 40.4189 40.88 40.9549 40.88C41.5069 40.88 41.9829 41.024 42.3829 41.312C42.7909 41.6 43.0589 41.992 43.1869 42.488H43.0429L43.1629 40.988H43.8709C43.8469 41.22 43.8229 41.448 43.7989 41.672C43.7829 41.896 43.7749 42.116 43.7749 42.332V47H43.0429V45.5H43.1749C43.0469 45.996 42.7789 46.388 42.3709 46.676C41.9709 46.956 41.4989 47.096 40.9549 47.096ZM41.0509 46.472C41.6669 46.472 42.1549 46.26 42.5149 45.836C42.8749 45.412 43.0549 44.796 43.0549 43.988C43.0549 43.18 42.8749 42.564 42.5149 42.14C42.1549 41.716 41.6669 41.504 41.0509 41.504C40.4349 41.504 39.9429 41.716 39.5749 42.14C39.2149 42.564 39.0349 43.18 39.0349 43.988C39.0349 44.796 39.2149 45.412 39.5749 45.836C39.9429 46.26 40.4349 46.472 41.0509 46.472ZM45.8225 47V40.988H46.4465L48.7745 45.224L51.1265 40.988H51.7385V47H51.0785V41.792H51.3305L48.9785 46.04H48.5825L46.2305 41.792H46.4825V47H45.8225Z" fill="#F9FAFF"/>
</svg>