<svg width="70" height="70" viewBox="0 0 70 70" fill="none" xmlns="http://www.w3.org/2000/svg">
<path d="M13.4791 14.5923L13.3636 14.1058L13.4791 14.5923C14.0306 14.4613 14.4612 14.0307 14.5921 13.4792L16.2035 6.68995C16.2652 6.4302 16.52 6.2647 16.7824 6.31403L23.6401 7.60335C24.1972 7.70808 24.7658 7.48984 25.1097 7.03924L29.3432 1.49239C29.5052 1.28016 29.8053 1.23263 30.025 1.38441L35.7654 5.35154C36.2317 5.67381 36.8399 5.70569 37.3373 5.43392L43.461 2.08856C43.6953 1.96057 43.9888 2.03922 44.1277 2.2672L47.7583 8.2262C48.0532 8.71028 48.5958 8.98676 49.1608 8.94083L56.1157 8.3754C56.3818 8.35377 56.6179 8.545 56.6521 8.80977L57.545 15.7303C57.6176 16.2925 58.0008 16.7657 58.5357 16.9536L65.1193 19.2659C65.3712 19.3543 65.5091 19.6251 65.4326 19.8808L63.4335 26.5662C63.2712 27.1093 63.4288 27.6976 63.8409 28.0867L68.9149 32.8769C69.109 33.0601 69.1249 33.3636 68.951 33.5661L64.4056 38.8604C64.0363 39.2905 63.9411 39.892 64.1593 40.4151L66.8463 46.8549C66.9491 47.1013 66.8402 47.385 66.5989 47.4993L60.2931 50.4871C59.7808 50.7298 59.4491 51.2406 59.4358 51.8073L59.2711 58.7832C59.2648 59.0501 59.0499 59.2649 58.783 59.2712L51.8071 59.4359C51.2404 59.4493 50.7297 59.781 50.487 60.2932L47.4992 66.5991C47.3849 66.8403 47.1012 66.9492 46.8548 66.8464L40.415 64.1595C39.8919 63.9412 39.2904 64.0365 38.8603 64.4057L33.566 68.9512C33.3634 69.1251 33.06 69.1092 32.8767 68.915L28.0865 63.8411C27.6974 63.4289 27.1092 63.2713 26.5661 63.4337L19.8807 65.4328C19.6249 65.5093 19.3542 65.3713 19.2657 65.1194L16.9534 58.5358C16.7656 58.001 16.2923 57.6177 15.7301 57.5452L8.80963 56.6523C8.54485 56.6181 8.35362 56.3819 8.37526 56.1158L8.94068 49.1609C8.98661 48.5959 8.71014 48.0533 8.22606 47.7584L2.26706 44.1278C2.03907 43.9889 1.96042 43.6954 2.08842 43.4611L5.43378 37.3375C5.70554 36.84 5.67367 36.2319 5.3514 35.7655L1.38426 30.0251C1.23248 29.8055 1.28002 29.5054 1.49224 29.3434L7.0391 25.1098C7.48969 24.7659 7.70794 24.1974 7.6032 23.6403L6.31388 16.7826C6.26456 16.5202 6.43005 16.2653 6.68981 16.2037L13.4791 14.5923Z" fill="#E94D66" stroke="#F9FAFF"/>
</svg>
