<svg width="70" height="70" viewBox="0 0 70 70" fill="none" xmlns="http://www.w3.org/2000/svg">
<path d="M8.93077 20.8577L8.69332 20.4177L8.93077 20.8577C9.42961 20.5885 9.73411 20.0611 9.71781 19.4945L9.51715 12.5195C9.50948 12.2527 9.7128 12.0269 9.979 12.0066L16.9368 11.4771C17.502 11.4341 17.9946 11.0761 18.2102 10.5518L20.8639 4.09827C20.9654 3.85136 21.243 3.72776 21.4944 3.81753L28.066 6.16375C28.5999 6.35435 29.1956 6.22773 29.6057 5.83648L34.6549 1.02019C34.8481 0.83592 35.1519 0.83592 35.3451 1.02019L40.3943 5.83648C40.8044 6.22773 41.4001 6.35435 41.934 6.16375L48.5056 3.81753C48.757 3.72776 49.0346 3.85136 49.1361 4.09827L51.7898 10.5518C52.0053 11.0761 52.498 11.4341 53.0632 11.4771L60.021 12.0066C60.2872 12.0269 60.4905 12.2527 60.4828 12.5195L60.2822 19.4945C60.2659 20.0611 60.5704 20.5885 61.0692 20.8577L67.2101 24.1714C67.445 24.2982 67.5389 24.5872 67.4234 24.8279L64.4031 31.1182C64.1577 31.6292 64.2214 32.2349 64.5676 32.6837L68.8297 38.2086C68.9928 38.42 68.961 38.7222 68.7576 38.8951L63.4399 43.4131C63.0079 43.7802 62.8197 44.3593 62.9535 44.9102L64.5999 51.691C64.6629 51.9505 64.511 52.2136 64.2548 52.2888L57.5592 54.2533C57.0153 54.4129 56.6078 54.8655 56.5059 55.4231L55.252 62.2874C55.2041 62.55 54.9582 62.7286 54.6936 62.6931L47.7778 61.7645C47.216 61.689 46.6597 61.9367 46.3398 62.4047L42.4024 68.1655C42.2517 68.3859 41.9545 68.4491 41.7272 68.309L35.787 64.6478C35.3045 64.3503 34.6955 64.3503 34.213 64.6478L28.2728 68.309C28.0455 68.4491 27.7483 68.3859 27.5976 68.1655L23.6602 62.4047C23.3403 61.9367 22.784 61.689 22.2222 61.7645L15.3064 62.6931C15.0418 62.7286 14.7959 62.55 14.748 62.2874L13.4941 55.4231C13.3922 54.8655 12.9847 54.4129 12.4408 54.2533L5.74518 52.2888C5.48901 52.2136 5.33707 51.9505 5.40007 51.691L7.04652 44.9102C7.18027 44.3593 6.99208 43.7802 6.5601 43.4131L1.24241 38.8951C1.03896 38.7222 1.00719 38.42 1.17026 38.2086L5.43239 32.6837C5.77862 32.2349 5.84228 31.6292 5.59693 31.1182L2.57663 24.8279C2.46108 24.5872 2.55498 24.2982 2.78992 24.1714L8.93077 20.8577Z" fill="#E94D66" stroke="#F9FAFF"/>
<path d="M17.3614 38.096C16.7934 38.096 16.3014 37.972 15.8854 37.724C15.4774 37.476 15.1614 37.12 14.9374 36.656C14.7134 36.192 14.6014 35.636 14.6014 34.988C14.6014 34.348 14.7134 33.796 14.9374 33.332C15.1614 32.868 15.4774 32.512 15.8854 32.264C16.3014 32.008 16.7934 31.88 17.3614 31.88C17.9214 31.88 18.4054 32.008 18.8134 32.264C19.2294 32.512 19.5494 32.868 19.7734 33.332C20.0054 33.796 20.1214 34.348 20.1214 34.988C20.1214 35.636 20.0054 36.192 19.7734 36.656C19.5494 37.12 19.2294 37.476 18.8134 37.724C18.4054 37.972 17.9214 38.096 17.3614 38.096ZM17.3614 37.472C17.9694 37.472 18.4574 37.26 18.8254 36.836C19.1934 36.412 19.3774 35.796 19.3774 34.988C19.3774 34.18 19.1934 33.564 18.8254 33.14C18.4574 32.716 17.9694 32.504 17.3614 32.504C16.7454 32.504 16.2534 32.716 15.8854 33.14C15.5254 33.564 15.3454 34.18 15.3454 34.988C15.3454 35.796 15.5254 36.412 15.8854 36.836C16.2534 37.26 16.7454 37.472 17.3614 37.472ZM21.7932 38V31.988H22.5252V34.58H26.1132V31.988H26.8452V38H26.1132V35.192H22.5252V38H21.7932ZM28.4516 38.12L28.1396 37.544C28.4356 37.4 28.6796 37.228 28.8716 37.028C29.0636 36.828 29.2156 36.572 29.3276 36.26C29.4396 35.948 29.5196 35.56 29.5676 35.096C29.6156 34.624 29.6396 34.052 29.6396 33.38V31.988H33.7676V38H33.0476V32.588H30.3356V33.404C30.3356 34.38 30.2756 35.18 30.1556 35.804C30.0356 36.42 29.8356 36.908 29.5556 37.268C29.2836 37.628 28.9156 37.912 28.4516 38.12ZM38.1013 38.096C37.5573 38.096 37.0853 37.972 36.6853 37.724C36.2853 37.476 35.9773 37.12 35.7613 36.656C35.5453 36.192 35.4373 35.636 35.4373 34.988C35.4373 34.34 35.5453 33.788 35.7613 33.332C35.9853 32.868 36.2973 32.512 36.6973 32.264C37.0973 32.008 37.5653 31.88 38.1013 31.88C38.6533 31.88 39.1293 32.024 39.5293 32.312C39.9373 32.6 40.2053 32.992 40.3333 33.488H40.1893L40.3093 31.988H41.0173C40.9933 32.22 40.9693 32.448 40.9453 32.672C40.9293 32.896 40.9213 33.116 40.9213 33.332V38H40.1893V36.5H40.3213C40.1933 36.996 39.9253 37.388 39.5173 37.676C39.1173 37.956 38.6453 38.096 38.1013 38.096ZM38.1973 37.472C38.8133 37.472 39.3013 37.26 39.6613 36.836C40.0213 36.412 40.2013 35.796 40.2013 34.988C40.2013 34.18 40.0213 33.564 39.6613 33.14C39.3013 32.716 38.8133 32.504 38.1973 32.504C37.5813 32.504 37.0893 32.716 36.7213 33.14C36.3613 33.564 36.1813 34.18 36.1813 34.988C36.1813 35.796 36.3613 36.412 36.7213 36.836C37.0893 37.26 37.5813 37.472 38.1973 37.472ZM42.9689 38V31.988H43.6409V37.364H43.3409L47.3489 31.988H47.9849V38H47.3129V32.612H47.6249L43.6049 38H42.9689ZM45.4889 31.424C45.1929 31.424 44.9089 31.372 44.6369 31.268C44.3649 31.164 44.1249 31.004 43.9169 30.788C43.7089 30.564 43.5449 30.28 43.4249 29.936L43.9169 29.756C44.0609 30.148 44.2609 30.44 44.5169 30.632C44.7809 30.816 45.1049 30.908 45.4889 30.908C45.8729 30.908 46.1889 30.824 46.4369 30.656C46.6929 30.488 46.9249 30.192 47.1329 29.768L47.6009 29.936C47.3689 30.496 47.0689 30.884 46.7009 31.1C46.3409 31.316 45.9369 31.424 45.4889 31.424ZM50.0002 38V31.988H50.7322V34.58H54.3202V31.988H55.0522V38H54.3202V35.192H50.7322V38H50.0002Z" fill="#F9FAFF"/>
</svg>

